<?xml version="1.0" encoding="utf-8"?>
<!-- Generator: Adobe Illustrator 28.1.0, SVG Export Plug-In . SVG Version: 6.00 Build 0)  -->
<svg version="1.1" id="Слой_1" xmlns="http://www.w3.org/2000/svg" xmlns:xlink="http://www.w3.org/1999/xlink" x="0px" y="0px"
	 viewBox="0 0 239 272" style="enable-background:new 0 0 239 272;" xml:space="preserve">
<style type="text/css">
	.st0{fill:none;stroke:#FFFFFF;stroke-width:7.8912;stroke-miterlimit:10;}
	.st1{fill:none;stroke:#FFFFFF;stroke-width:7.8912;stroke-linejoin:round;stroke-miterlimit:10;}
</style>
<path class="st0" d="M205.5,130c0,19.5-5.9,37.7-16.1,52.8c-7.6,11.2,47.4,41.8,33.8,42.4c-16.8,0.6-93,0-112.1-0.7
	C59,222.2,16.7,182.1,16.7,130s42.2-94.4,94.4-94.4S205.5,77.9,205.5,130z"/>
<path class="st0" d="M152.4,121.4L93.7,87.5c-8-4.6-17.9,1.1-17.9,10.3v67.8c0,9.2,9.9,14.9,17.9,10.3l58.7-33.9
	C160.3,137.5,160.3,126,152.4,121.4z"/>
<path class="st1" d="M48.1,61.4"/>
<path class="st1" d="M102.3,92.7"/>
<path class="st0" d="M23.6,95.3c15.2-21.2,47-24.3,71-7.1"/>
<path class="st0" d="M128.6,224.7c-29.2,0-52.8-26.7-52.8-59.5"/>
<path class="st0" d="M179.9,65.3c14.3,26.3,1.4,61-28.8,77.5"/>
</svg>
