<?xml version="1.0" encoding="utf-8"?>
<!-- Generator: Adobe Illustrator 28.1.0, SVG Export Plug-In . SVG Version: 6.00 Build 0)  -->
<svg version="1.1" id="Слой_1" xmlns="http://www.w3.org/2000/svg" xmlns:xlink="http://www.w3.org/1999/xlink" x="0px" y="0px"
	 viewBox="0 0 247.5 268" style="enable-background:new 0 0 247.5 268;" xml:space="preserve">
<style type="text/css">
	.st0{fill:none;stroke:#000000;stroke-width:7.8912;stroke-miterlimit:10;}
	.st1{fill:none;stroke:#000000;stroke-width:7.8912;stroke-linejoin:round;stroke-miterlimit:10;}
</style>
<path class="st0" d="M203,109c0,19.5-5.9,37.7-16.1,52.8c-7.6,11.2,47.4,41.8,33.8,42.4c-16.8,0.6-93,0-112.1-0.7
	c-52.1-2.2-94.4-42.3-94.4-94.4s42.3-94.4,94.4-94.4S203,56.9,203,109z"/>
<path class="st0" d="M149.9,100.4L91.2,66.5c-8-4.6-17.9,1.1-17.9,10.3v67.8c0,9.2,9.9,14.9,17.9,10.3l58.7-33.9
	C157.8,116.5,157.8,105,149.9,100.4z"/>
<path class="st1" d="M45.6,40.4"/>
<path class="st1" d="M99.8,71.7"/>
<path class="st0" d="M21.1,74.3c15.2-21.2,47-24.3,71-7.1"/>
<path class="st0" d="M126.1,203.7c-29.2,0-52.8-26.7-52.8-59.5"/>
<path class="st0" d="M177.4,44.3c14.3,26.3,1.4,61-28.8,77.5"/>
<g>
	<path d="M39.3,242.4l0.8,4.6h0.2l0.9-4.7l5.7-15.7h6.1l-11,27.5h-4.1l-11.1-27.5h6.7L39.3,242.4z"/>
	<path d="M57.2,229.7h-3.1v-3.1h12v3.1H63v21.1h3.1v3.1h-12v-3.1h3.1V229.7z"/>
	<path d="M70.2,226.6c0.6-0.1,1.2-0.1,2-0.2c0.7,0,1.5-0.1,2.3-0.1c0.8,0,1.6,0,2.3-0.1s1.4,0,2,0c2.6,0,4.8,0.3,6.7,1
		c1.9,0.7,3.4,1.6,4.6,2.9s2,2.7,2.6,4.4c0.5,1.7,0.8,3.5,0.8,5.5c0,1.8-0.3,3.6-0.8,5.3s-1.4,3.2-2.6,4.6c-1.2,1.3-2.8,2.4-4.7,3.2
		c-1.9,0.8-4.3,1.2-7.1,1.2c-0.4,0-1,0-1.8,0c-0.8,0-1.6-0.1-2.4-0.1s-1.6-0.1-2.3-0.1s-1.2-0.1-1.6-0.1L70.2,226.6L70.2,226.6z
		 M79.2,231.3c-0.6,0-1.2,0-1.8,0c-0.6,0-1.1,0-1.4,0.1v17.7c0.1,0,0.3,0,0.6,0.1c0.3,0,0.6,0,0.9,0s0.6,0,0.9,0c0.3,0,0.5,0,0.6,0
		c1.7,0,3-0.3,4.1-0.8c1.1-0.5,2-1.2,2.6-2.1c0.6-0.9,1.1-1.8,1.4-2.9c0.3-1.1,0.4-2.2,0.4-3.4c0-1-0.1-2-0.4-3s-0.7-2-1.3-2.9
		c-0.6-0.9-1.4-1.6-2.5-2.1C82.2,231.6,80.9,231.3,79.2,231.3z"/>
	<path d="M120.5,246.4c0-0.8-0.3-1.4-1-1.9c-0.7-0.5-1.5-0.9-2.5-1.3s-2.1-0.8-3.3-1.2s-2.3-0.9-3.3-1.6s-1.8-1.5-2.5-2.5
		s-1-2.3-1-3.9c0-1.4,0.2-2.5,0.7-3.6s1.2-1.9,2-2.5s1.9-1.2,3.2-1.5s2.6-0.5,4.1-0.5c1.7,0,3.4,0.1,4.9,0.5
		c1.5,0.3,2.8,0.7,3.8,1.3l-1.8,4.8c-0.3-0.2-0.7-0.4-1.2-0.6s-1-0.4-1.7-0.5c-0.6-0.1-1.3-0.3-2-0.4c-0.7-0.1-1.4-0.1-2.1-0.1
		c-1.3,0-2.3,0.2-3,0.7c-0.7,0.5-1.1,1.1-1.1,1.9c0,0.8,0.3,1.5,1,1.9c0.7,0.5,1.5,0.9,2.5,1.3c1,0.4,2.1,0.8,3.3,1.2
		s2.3,0.9,3.3,1.6c1,0.6,1.8,1.4,2.5,2.4s1,2.2,1,3.7c0,1.5-0.3,2.8-0.8,3.9s-1.2,2-2.2,2.7c-1,0.7-2.1,1.2-3.4,1.6
		c-1.3,0.3-2.8,0.5-4.4,0.5c-1.1,0-2.1-0.1-3-0.2c-1-0.1-1.8-0.3-2.6-0.4c-0.8-0.2-1.5-0.4-2.1-0.5c-0.6-0.2-1.1-0.4-1.5-0.6
		l1.9-4.9c0.3,0.2,0.7,0.3,1.2,0.5c0.5,0.2,1.1,0.4,1.7,0.5c0.6,0.2,1.3,0.3,2,0.4c0.7,0.1,1.4,0.2,2.2,0.2c1.7,0,3-0.2,3.9-0.7
		C120.1,248.2,120.5,247.5,120.5,246.4z"/>
	<path d="M150.2,252.7c-0.9,0.6-2,1-3.4,1.3c-1.4,0.3-2.9,0.4-4.3,0.4c-1.7,0-3.4-0.3-5-0.8s-3-1.4-4.2-2.5c-1.2-1.1-2.2-2.6-3-4.4
		c-0.7-1.8-1.1-4-1.1-6.5c0-2.6,0.4-4.9,1.2-6.7s1.9-3.3,3.2-4.4s2.7-1.9,4.3-2.4s3.1-0.7,4.7-0.7c1.7,0,3.1,0.1,4.3,0.3
		s2.1,0.5,2.9,0.7l-1.1,4.8c-0.6-0.3-1.4-0.5-2.3-0.6s-2-0.2-3.3-0.2c-1.2,0-2.2,0.2-3.2,0.6s-1.8,0.9-2.4,1.7
		c-0.7,0.8-1.2,1.7-1.6,2.9s-0.6,2.5-0.6,4c0,1.4,0.2,2.6,0.5,3.7s0.9,2.1,1.5,2.9c0.7,0.8,1.5,1.4,2.6,1.9s2.2,0.7,3.6,0.7
		c1.3,0,2.4-0.1,3.2-0.4s1.6-0.5,2.3-0.9L150.2,252.7z"/>
	<path d="M151.5,240.2c0-2.2,0.3-4.2,0.9-6c0.6-1.8,1.4-3.3,2.5-4.5c1.1-1.2,2.4-2.1,4-2.8s3.3-1,5.3-1c2.1,0,4,0.3,5.5,1
		c1.6,0.7,2.9,1.7,3.9,2.9s1.9,2.7,2.4,4.5c0.5,1.7,0.8,3.7,0.8,5.8c0,2.2-0.3,4.2-0.9,6c-0.6,1.8-1.4,3.3-2.5,4.5
		c-1.1,1.2-2.4,2.1-4,2.8c-1.6,0.6-3.3,1-5.3,1c-2.1,0-4-0.3-5.5-1c-1.6-0.7-2.9-1.7-3.9-2.9s-1.8-2.7-2.4-4.5
		C151.8,244.3,151.5,242.4,151.5,240.2z M157.6,240.2c0,1.4,0.1,2.6,0.4,3.7s0.6,2.1,1.2,2.9c0.5,0.8,1.2,1.4,2,1.9s1.8,0.7,2.9,0.7
		c2,0,3.6-0.7,4.8-2.1c1.1-1.4,1.7-3.8,1.7-7c0-1.3-0.1-2.5-0.4-3.6s-0.6-2.1-1.1-2.9s-1.2-1.5-2-1.9s-1.8-0.7-3-0.7
		c-2,0-3.6,0.7-4.8,2.2C158.2,234.8,157.6,237.1,157.6,240.2z"/>
	<path d="M196.9,226.6h5.5v17.5c0,1.8-0.2,3.3-0.8,4.6s-1.2,2.4-2.1,3.2c-0.9,0.8-2,1.5-3.3,1.9s-2.7,0.6-4.2,0.6
		c-3.7,0-6.5-0.8-8.4-2.4c-1.9-1.6-2.9-4-2.9-7.2v-18.2h5.8v17.1c0,2.1,0.5,3.5,1.4,4.4s2.3,1.2,4.1,1.2c1.7,0,3-0.4,3.8-1.3
		c0.8-0.9,1.2-2.3,1.2-4.3L196.9,226.6L196.9,226.6z"/>
	<path d="M228.4,231.7h-8.7v22.2h-5.8v-22.2h-8.7v-5.1h23.1L228.4,231.7L228.4,231.7z"/>
</g>
</svg>
